# xmcd CD database file
#
# Track frame offsets:
#	150
#	11175
#	27222
#	39668
#	49268
#	59542
#	71240
#	88037
#	100335
#	113761
#	126810
#	138207
#	147732
#	159506
#	168654
#	179902
#	190474
#	203074
#	215451
#	224524
#	235262
#	245162
#
# Disc length: 3448 seconds
#
# Revision: 0
# Processed by: cddbd v1.4PL0 Copyright (c) Steve Scherf et al.
# Submitted via: CDex 1.50
#
DISCID=620d7616
DTITLE=Jake Krack - Wire Fire
DYEAR=2001
DGENRE=Old Time
TTITLE0=Yellin in the Shoats
TTITLE1=Katy Hill
TTITLE2=Indian Squaw
TTITLE3=Martha Campbell
TTITLE4=George Booker
TTITLE5=Billy in the Lowground
TTITLE6=Walk Along John
TTITLE7=Hell Among the Yearlings
TTITLE8=Margaret's Waltz
TTITLE9=Poca River Blues
TTITLE10=Fair Morning Hornpipe
TTITLE11=Yew Piney Mountain
TTITLE12=Blackberry Blossom
TTITLE13=Carroll County Blues
TTITLE14=Fire on the Mountain
TTITLE15=Maid Behind the Bar
TTITLE16=The 28th of January
TTITLE17=Paddy on the Turnpike
TTITLE18=Ida Red
TTITLE19=Jump Jim Crow
TTITLE20=Cattle in the Cane
TTITLE21=Polecat Blues
EXTD=YEAR: 2001
EXTT0=
EXTT1=
EXTT2=
EXTT3=
EXTT4=
EXTT5=
EXTT6=
EXTT7=
EXTT8=
EXTT9=
EXTT10=
EXTT11=
EXTT12=
EXTT13=
EXTT14=
EXTT15=
EXTT16=
EXTT17=
EXTT18=
EXTT19=
EXTT20=
EXTT21=
PLAYORDER=
